<svg xmlns="http://www.w3.org/2000/svg" width="2689.924" height="2689.333" viewBox="0 0 2689.924 2689.333">
  <g id="Layer_x0020_1" transform="translate(-613.079 -1547.53)">
    <path id="Path_8164" data-name="Path 8164" d="M1670.6,4222.354c46.175-13.5,189.078-16.781,373.843-147.128,240.223-169.472,264.965-544.531,104.2-768.735-60.058-83.761-201.8-162.333-318.024-204.4-34.281,34.081-35.5,25.269-63.571,72.078-138.88,231.595,172.615,335.8-50.983,505.912-217.227,165.273-381.884-119.894-269.19-363.623,33.985-73.5,63.661-107.589,105.3-163.53,39.747-53.4,87.091-86.064,129.2-140.342-67.282-41.766-125.955-78.354-169.613-131.923-158.772-194.839-227.848-364.74-256.063-636.791,15.225-370.325,336.154-591,633.918-682.257-359.967,5.057-583.38,127.244-754.245,254.779-232.72,173.7-412.993,482.368-483.173,765.53-120.348,485.577,50.234,951.811,331.054,1257.409l115.4,101.349c34.408,25.848,102.826,83.3,140.439,105.733,104.24,62.174,306.847,172.968,431.518,175.941Z" transform="translate(0 -8.986)" fill="#6de9d4" fill-rule="evenodd"/>
    <path id="Path_8165" data-name="Path 8165" d="M4003.552,4266.194c523.116-116.061,935.939-363.374,1109.006-907.631,98.564-339.534,84.771-642.732-60.677-971.714-135.975-307.558-420.894-582.331-737.667-697.745-46.508-16.945-164.87-59.473-220.537-63.225-20.29,5.473-186.26,22.414-212.8,28.716-372.964,67.842-427.137,583.4-192.456,866.6,50.3,60.7,186.27,159.127,282.849,189.855,140.852-142.372,30.18-364.273,22.862-410.923-23.556-150.111,146.538-270.921,295.705-187.305,135.95,76.2,121.213,276.542,70.8,396.318-49.785,118.3-154.492,250.591-236.746,291.7,35.435,38.384,44.833,43.248,74.311,73.307,178.49,182,287.766,275.578,321.841,584.311C4554.991,3775.124,4209.986,4062.654,4003.552,4266.194Z" transform="translate(-1872.861 -50.008)" fill="#12b598" fill-rule="evenodd"/>
    <path id="Path_8166" data-name="Path 8166" d="M2388.7,2260.342c34.155,329.3,152.427,561.411,425.672,743.195-42.109,54.275-89.453,86.939-129.2,140.333-41.636,55.934-71.312,90.021-105.3,163.52-112.694,243.714,51.963,528.863,269.19,363.6,223.594-170.1-87.9-274.3,50.982-505.881,28.07-46.806,29.29-37.994,63.571-72.073,537.693,194.627,575.162,899.471-160.016,1120.2,640.244,115.638,1008.893-199.611,976.587-804.815-37.125-336.317-157.527-485.063-396.151-657.547,82.254-41.1,186.961-173.387,236.747-291.673,50.411-119.763,65.151-320.084-70.8-396.275-149.168-83.606-319.261,37.19-295.705,187.285,7.318,46.642,117.993,268.523-22.862,410.879-433.949-138.049-655.68-960.688,122.407-1085.053-32.914-13.4-180.671-28.778-233.1-28.5-419.367,2.219-746.923,299.6-732.027,712.808Z" transform="translate(-1133.009 0)" fill-rule="evenodd"/>
  </g>
</svg>
